<?xml version="1.0" encoding="UTF-8"?>
<svg width="120px" height="120px" viewBox="0 0 120 120" version="1.1" xmlns="http://www.w3.org/2000/svg" xmlns:xlink="http://www.w3.org/1999/xlink">
    <!-- Generator: Sketch 45.2 (43514) - http://www.bohemiancoding.com/sketch -->
    <title>avatar</title>
    <desc>Created with Sketch.</desc>
    <defs>
        <linearGradient x1="89.8301728%" y1="22.630174%" x2="17.3721161%" y2="79.6984738%" id="linearGradient-1">
            <stop stop-color="#00A1FF" offset="0%"></stop>
            <stop stop-color="#007CFF" offset="52.5936346%"></stop>
            <stop stop-color="#1360FF" offset="100%"></stop>
        </linearGradient>
        <path d="M9.35795475,12.5936886 L19.588067,3.82468311 C25.5373449,-1.27489437 34.2928748,-1.27489437 40.2421526,3.82468311 L50.4722649,12.5936886 C53.1553303,14.8935476 55.0018878,18.0238737 55.7217988,21.4928173 L59.4949289,39.67392 C60.5852392,44.9276595 58.9792426,50.3805559 55.2190109,54.1920941 L41.2157685,68.3864037 C35.0293361,74.6572468 24.9547646,74.7018406 18.7135832,68.4860068 C18.6803938,68.4529522 18.6473495,68.4197508 18.6144512,68.3864037 L4.61120879,54.1920941 C0.850977022,50.3805559 -0.755019546,44.9276595 0.335290731,39.67392 L4.10842085,21.4928173 C4.82833185,18.0238737 6.67488934,14.8935476 9.35795475,12.5936886 Z" id="path-2"></path>
    </defs>
    <g id="Page-1" stroke="none" stroke-width="1" fill="none" fill-rule="evenodd">
        <g id="About-Us" transform="translate(-1028.000000, -1385.000000)">
            <g id="Group-5-Copy-2" transform="translate(185.000000, 1325.000000)">
                <g id="Group-2-Copy-2" transform="translate(734.000000, 0.000000)">
                    <g id="avatar" transform="translate(109.000000, 60.000000)">
                        <circle id="Oval" fill="#F5F7FA" cx="60" cy="60" r="60"></circle>
                        <g id="logos/Iso1" transform="translate(30.000000, 23.000000)">
                            <g id="Group-2">
                                <g id="Group-42-Copy-3">
                                    <g id="Group-7">
                                        <mask id="mask-3" fill="white">
                                            <use xlink:href="#path-2"></use>
                                        </mask>
                                        <use id="Rectangle-2-Copy-45" fill="url(#linearGradient-1)" xlink:href="#path-2"></use>
                                        <path d="M43.4254144,46.6059771 L43.4254144,46.6059771 L43.4254144,48.9608711 C43.4254144,56.5027354 37.3404447,62.6166243 29.8342541,62.6166243 C22.3280636,62.6166243 16.2430939,56.5027354 16.2430939,48.9608711 L16.2430939,46.6059771 C11.4263366,46.2644191 7.62430939,42.2300857 7.62430939,37.3035209 C7.62430939,32.1529794 11.7798985,27.9776407 16.9060773,27.9776407 L42.7624309,27.9776407 C47.8886098,27.9776407 52.0441989,32.1529794 52.0441989,37.3035209 C52.0441989,42.2300857 48.2421717,46.2644191 43.4254144,46.6059771 Z M17.4033149,34.9720508 C16.0302313,34.9720508 14.9171271,36.0904451 14.9171271,37.4700544 C14.9171271,38.8496638 16.0302313,39.9680581 17.4033149,39.9680581 L42.5966851,39.9680581 C43.9697687,39.9680581 45.0828729,38.8496638 45.0828729,37.4700544 C45.0828729,36.0904451 43.9697687,34.9720508 42.5966851,34.9720508 L17.4033149,34.9720508 Z M26.3535912,45.2971325 C24.9805075,45.2971325 23.8674033,46.4155268 23.8674033,47.7951361 C23.8674033,49.1747454 24.9805075,50.2931397 26.3535912,50.2931397 L33.6464088,50.2931397 C35.0194925,50.2931397 36.1325967,49.1747454 36.1325967,47.7951361 C36.1325967,46.4155268 35.0194925,45.2971325 33.6464088,45.2971325 L26.3535912,45.2971325 Z" id="Combined-Shape" fill="#FFFFFF" mask="url(#mask-3)"></path>
                                    </g>
                                </g>
                            </g>
                        </g>
                    </g>
                </g>
            </g>
        </g>
    </g>
</svg>