<?xml version="1.0" encoding="UTF-8"?>
<svg width="37px" height="10px" viewBox="0 0 37 10" version="1.1" xmlns="http://www.w3.org/2000/svg" xmlns:xlink="http://www.w3.org/1999/xlink">
    <!-- Generator: Sketch 45.1 (43504) - http://www.bohemiancoding.com/sketch -->
    <title>header_controls</title>
    <desc>Created with Sketch.</desc>
    <defs></defs>
    <g id="Page-1" stroke="none" stroke-width="1" fill="none" fill-rule="evenodd" fill-opacity="0.114470109">
        <g id="Website_3-Copy-2" transform="translate(-716.000000, -2987.000000)" fill="#FFFFFF">
            <g id="Group-49" transform="translate(704.000000, 2976.000000)">
                <g id="Group-11">
                    <path d="M16.9081633,21 C14.1974595,21 12,18.7614237 12,16 C12,13.2385763 14.1974595,11 16.9081633,11 C19.618867,11 21.8163265,13.2385763 21.8163265,16 C21.8163265,18.7614237 19.618867,21 16.9081633,21 Z M30.5,21 C27.7892963,21 25.5918367,18.7614237 25.5918367,16 C25.5918367,13.2385763 27.7892963,11 30.5,11 C33.2107037,11 35.4081633,13.2385763 35.4081633,16 C35.4081633,18.7614237 33.2107037,21 30.5,21 Z M44.0918367,21 C41.381133,21 39.1836735,18.7614237 39.1836735,16 C39.1836735,13.2385763 41.381133,11 44.0918367,11 C46.8025405,11 49,13.2385763 49,16 C49,18.7614237 46.8025405,21 44.0918367,21 Z" id="header_controls"></path>
                </g>
            </g>
        </g>
    </g>
</svg>