<?xml version="1.0" encoding="UTF-8"?>
<svg width="71px" height="17px" viewBox="0 0 71 17" version="1.1" xmlns="http://www.w3.org/2000/svg" xmlns:xlink="http://www.w3.org/1999/xlink">
    <!-- Generator: Sketch 45.2 (43514) - http://www.bohemiancoding.com/sketch -->
    <title>icons_submenu</title>
    <desc>Created with Sketch.</desc>
    <defs></defs>
    <g id="Page-1" stroke="none" stroke-width="1" fill="none" fill-rule="evenodd">
        <g id="Pricing-3" transform="translate(-790.000000, -117.000000)">
            <g id="Group-9-Copy" transform="translate(790.000000, 89.000000)">
                <g id="icons_submenu" transform="translate(0.000000, 28.000000)">
                    <g id="Group-2" transform="translate(25.000000, 0.000000)">
                        <path d="M5,0 L15,0 L15,0 C16.1045695,-2.02906125e-16 17,0.8954305 17,2 L17,15 L17,15 C17,16.1045695 16.1045695,17 15,17 L3,17 L3,2 L3,2 C3,0.8954305 3.8954305,2.02906125e-16 5,0 Z" id="Rectangle" fill="#008BFF"></path>
                        <path d="M7,3 L13,3 L13,3 C13.5522847,3 14,3.44771525 14,4 L14,4 L14,4 C14,4.55228475 13.5522847,5 13,5 L7,5 L7,5 C6.44771525,5 6,4.55228475 6,4 L6,4 L6,4 C6,3.44771525 6.44771525,3 7,3 Z" id="Rectangle-2" fill="#FFFFFF"></path>
                        <path d="M7,7 L13,7 L13,7 C13.5522847,7 14,7.44771525 14,8 L14,8 L14,8 C14,8.55228475 13.5522847,9 13,9 L7,9 L7,9 C6.44771525,9 6,8.55228475 6,8 L6,8 L6,8 C6,7.44771525 6.44771525,7 7,7 Z" id="Rectangle-2-Copy" fill="#FFFFFF"></path>
                        <path d="M7,11 L13,11 L13,11 C13.5522847,11 14,11.4477153 14,12 L14,12 L14,12 C14,12.5522847 13.5522847,13 13,13 L7,13 L7,13 C6.44771525,13 6,12.5522847 6,12 L6,12 L6,12 C6,11.4477153 6.44771525,11 7,11 Z" id="Rectangle-2-Copy-2" fill="#FFFFFF"></path>
                        <path d="M2,7 L4,7 L4,17 L2,17 L2,17 C0.8954305,17 1.3527075e-16,16.1045695 0,15 L0,9 L0,9 C-1.3527075e-16,7.8954305 0.8954305,7 2,7 Z" id="Rectangle-Copy" fill="#008BFF" opacity="0.549988678"></path>
                    </g>
                    <g id="Group-2-Copy" transform="translate(0.000000, 1.000000)">
                        <path d="M2,0 L16,0 L16,-2.22044605e-16 C17.1045695,-4.2495073e-16 18,0.8954305 18,2 L18,6 L0,6 L0,2 L-2.22044605e-16,2 C-3.57315355e-16,0.8954305 0.8954305,-1.91384796e-17 2,-2.22044605e-16 Z" id="Rectangle" fill="#008BFF"></path>
                        <path d="M15,2 L15,2 L15,2 C15.5522847,2 16,2.44771525 16,3 L16,3 L16,3 C16,3.55228475 15.5522847,4 15,4 L15,4 L15,4 C14.4477153,4 14,3.55228475 14,3 L14,3 L14,3 C14,2.44771525 14.4477153,2 15,2 Z" id="Rectangle-2" fill="#FFFFFF"></path>
                        <path d="M12,2 L12,2 L12,2 C12.5522847,2 13,2.44771525 13,3 L13,3 L13,3 C13,3.55228475 12.5522847,4 12,4 L12,4 L12,4 C11.4477153,4 11,3.55228475 11,3 L11,3 L11,3 C11,2.44771525 11.4477153,2 12,2 Z" id="Rectangle-2-Copy-3" fill="#FFFFFF"></path>
                        <path d="M8,7 L14,7 L14,7 C14.5522847,7 15,7.44771525 15,8 L15,8 L15,8 C15,8.55228475 14.5522847,9 14,9 L8,9 L8,9 C7.44771525,9 7,8.55228475 7,8 L7,8 L7,8 C7,7.44771525 7.44771525,7 8,7 Z" id="Rectangle-2-Copy" fill="#FFFFFF"></path>
                        <path d="M8,11 L14,11 L14,11 C14.5522847,11 15,11.4477153 15,12 L15,12 L15,12 C15,12.5522847 14.5522847,13 14,13 L8,13 L8,13 C7.44771525,13 7,12.5522847 7,12 L7,12 L7,12 C7,11.4477153 7.44771525,11 8,11 Z" id="Rectangle-2-Copy-2" fill="#FFFFFF"></path>
                        <path d="M0,6 L18,6 L18,13 L18,13 C18,14.1045695 17.1045695,15 16,15 L2,15 L2,15 C0.8954305,15 6.25798147e-16,14.1045695 0,13 L0,6 Z" id="Rectangle-Copy" fill="#008BFF" opacity="0.549988678"></path>
                    </g>
                    <g id="Group-11" transform="translate(49.000000, 1.000000)">
                        <g id="Group-10">
                            <circle id="Oval" fill="#73BFFF" cx="7.96875" cy="7.96875" r="7.96875"></circle>
                            <path d="M18.9042016,2.33224479 C16.6271539,0.0551534715 13.2026286,-0.626052573 10.2274881,0.606274284 C7.2523475,1.83860114 5.3125,4.74177303 5.3125,7.96203557 C5.3125,11.1822981 7.2523475,14.08547 10.2274881,15.3177969 C13.2026286,16.5501237 16.6271539,15.8689177 18.9042016,13.5918263 C20.4023889,12.1014111 21.2447181,10.0753038 21.2447181,7.96203557 C21.2447181,5.84876731 20.4023889,3.82266004 18.9042016,2.33224479 Z" id="Shape" fill="#008BFF" fill-rule="nonzero"></path>
                        </g>
                        <path d="M13.1525952,12.9246273 C12.4809132,12.9246267 11.9363256,12.3802759 11.9360329,11.7085939 C11.9357402,11.0369119 12.4798533,10.4920867 13.151535,10.4915008 C13.8232168,10.4909149 14.3682795,11.03479 14.3691587,11.7064714 C14.3691593,12.378619 13.8247422,12.9237486 13.1525952,12.9246273 L13.1525952,12.9246273 Z" id="Path" fill="#FFFFFF"></path>
                        <path d="M16.4010108,6.87365712 C16.2099275,7.19212923 15.8054679,7.60295826 15.2019633,8.07748171 C14.75451,8.43098575 14.4790316,8.71442594 14.3596045,8.93098697 C14.2428001,9.16391271 14.180713,9.42043033 14.1780754,9.6809888 L11.9694713,9.6809888 L11.9694713,9.54245343 C11.9593172,9.21439231 12.005088,8.88699669 12.104822,8.57429821 C12.1939685,8.32803928 12.3284533,8.10065731 12.5013198,7.90391441 C12.8886042,7.50596209 13.3013663,7.13362512 13.7369916,6.78926201 C14.1127886,6.48352878 14.2943178,6.20327332 14.2943178,5.93097967 C14.306572,5.69740919 14.2185091,5.46972032 14.0522789,5.30518196 C13.8550875,5.14295755 13.6031609,5.06259181 13.3484556,5.08065912 C13.0373581,5.0714122 12.7365627,5.19265408 12.5188357,5.41505484 C12.3166059,5.618877 12.1860324,5.94690327 12.1207456,6.41664964 L9.86118594,6.13798654 C9.92891244,5.37122337 10.267641,4.65368331 10.8166023,4.11409626 C11.3691514,3.58224783 12.2353955,3.31791598 13.3914493,3.31791598 C14.2943178,3.31791598 15.028396,3.50740689 15.5777604,3.88001926 C16.3277622,4.38638992 16.6924128,5.04244247 16.6924128,5.88320885 C16.6868368,6.23167103 16.5860678,6.57197278 16.4010108,6.86728768 L16.4010108,6.87365712 Z" id="Path" fill="#FFFFFF"></path>
                    </g>
                </g>
            </g>
        </g>
    </g>
</svg>