<?xml version="1.0" encoding="UTF-8"?>
<svg width="25px" height="21px" viewBox="0 0 25 21" version="1.1" xmlns="http://www.w3.org/2000/svg" xmlns:xlink="http://www.w3.org/1999/xlink">
    <!-- Generator: Sketch 45.2 (43514) - http://www.bohemiancoding.com/sketch -->
    <title>icon_tweeter</title>
    <desc>Created with Sketch.</desc>
    <defs></defs>
    <g id="Page-1" stroke="none" stroke-width="1" fill="none" fill-rule="evenodd">
        <g id="About-Us" transform="translate(-341.000000, -613.000000)" fill="#00A1FF">
            <g id="Group-5" transform="translate(185.000000, 330.000000)">
                <g id="Group-2">
                    <path d="M178.054939,286.199797 C179.114398,285.568316 179.927335,284.567009 180.308857,283.374211 C179.316899,283.958916 178.220755,284.384289 177.051241,284.612324 C176.117979,283.619787 174.78265,283 173.307918,283 C170.477314,283 168.179374,285.287658 168.179374,288.108858 C168.179374,288.509381 168.223396,288.89821 168.31144,289.272421 C164.050126,289.059004 160.271585,287.027154 157.74033,283.932604 C157.298644,284.689797 157.046252,285.568316 157.046252,286.503844 C157.046252,288.275499 157.951635,289.839585 159.328051,290.756109 C158.487234,290.731259 157.694841,290.498839 157.003698,290.118781 L157.003698,290.181637 C157.003698,292.657862 158.770441,294.723331 161.118272,295.191095 C160.688325,295.31096 160.234901,295.370892 159.766802,295.370892 C159.436638,295.370892 159.113811,295.340195 158.802723,295.280263 C159.454247,297.309188 161.348653,298.788492 163.592299,298.826497 C161.837295,300.19763 159.625932,301.014755 157.223807,301.014755 C156.808534,301.014755 156.400599,300.991367 156,300.944591 C158.270059,302.391735 160.965663,303.238095 163.8623,303.238095 C173.297646,303.238095 178.454071,295.454212 178.454071,288.702334 C178.454071,288.480146 178.449668,288.257958 178.440864,288.040155 C179.443094,287.319507 180.314727,286.420523 181,285.395828 C180.079944,285.802198 179.09092,286.077009 178.054939,286.199797 Z" id="icon_tweeter"></path>
                </g>
            </g>
        </g>
    </g>
</svg>