<?xml version="1.0" encoding="UTF-8"?>
<svg width="14px" height="14px" viewBox="0 0 14 14" version="1.1" xmlns="http://www.w3.org/2000/svg" xmlns:xlink="http://www.w3.org/1999/xlink">
    <!-- Generator: Sketch 45.2 (43514) - http://www.bohemiancoding.com/sketch -->
    <title>icon_Q</title>
    <desc>Created with Sketch.</desc>
    <defs></defs>
    <g id="Page-1" stroke="none" stroke-width="1" fill="none" fill-rule="evenodd">
        <g id="Pricing-3" transform="translate(-630.000000, -538.000000)">
            <g id="Group-9" transform="translate(179.000000, 315.000000)">
                <g id="Group-6" transform="translate(35.000000, 0.000000)">
                    <g id="Group-5-Copy">
                        <g id="icon_Q" transform="translate(416.000000, 223.000000)">
                            <path d="M11.7764632,2.02076207 C9.80352646,0.0477874551 6.83636328,-0.542440184 4.25856732,0.525303382 C1.68077136,1.59304695 1.58071169e-15,4.108486 0,6.8986667 C-1.58071169e-15,9.6888474 1.68077136,12.2042865 4.25856732,13.27203 C6.83636328,14.3397736 9.80352646,13.7495459 11.7764632,11.7765713 C13.0745603,10.4852083 13.8043923,8.72969763 13.8043923,6.8986667 C13.8043923,5.06763577 13.0745603,3.31212506 11.7764632,2.02076207 Z" id="Shape" fill="#C4D0DC" fill-rule="nonzero"></path>
                            <path d="M6.79474919,11.2013436 C6.21262476,11.2013431 5.74064884,10.7295724 5.74039519,10.147448 C5.74014154,9.56532366 6.21170615,9.09314181 6.79383037,9.09263402 C7.37595458,9.09212622 7.84834226,9.56348464 7.8491042,10.1456086 C7.8491047,10.7281364 7.37727655,11.2005822 6.79474919,11.2013436 Z M9.61004267,5.95716951 C9.44443718,6.23317867 9.09390554,6.58923049 8.57086817,7.00048415 C8.18307529,7.30685432 7.94432737,7.55250248 7.84082393,7.74018871 C7.73959343,7.94205768 7.68578463,8.16437295 7.68349871,8.39019029 L5.76937515,8.39019029 L5.76937515,8.27012631 C5.76057494,7.98580667 5.80024294,7.7020638 5.88667904,7.43105844 C5.96393938,7.21763405 6.0804929,7.02056967 6.23031045,6.85005915 C6.56595697,6.50516715 6.92368415,6.1824751 7.30122601,5.88402708 C7.62691683,5.61905828 7.78424205,5.37617021 7.78424205,5.14018238 C7.79486236,4.93775463 7.71854121,4.74042428 7.57447509,4.59782437 C7.40357585,4.45722988 7.18523942,4.38757957 6.96449483,4.40323791 C6.694877,4.39522391 6.43418772,4.5003002 6.24549096,4.69304753 C6.07022514,4.8696934 5.95706138,5.15398284 5.9004795,5.56109635 L3.94219448,5.31958833 C4.00089078,4.65506026 4.29445556,4.0331922 4.77022197,3.56555009 C5.24909787,3.10461479 5.9998428,2.87552718 7.00175607,2.87552718 C7.78424205,2.87552718 8.42044317,3.03975263 8.89655898,3.36268336 C9.54656057,3.80153793 9.86259106,4.37011681 9.86259106,5.098781 C9.85775852,5.40078156 9.77042541,5.69570975 9.61004267,5.95164932 L9.61004267,5.95716951 Z" id="Combined-Shape" fill="#FFFFFF"></path>
                        </g>
                    </g>
                </g>
            </g>
        </g>
    </g>
</svg>