<svg xmlns="http://www.w3.org/2000/svg" xmlns:xlink="http://www.w3.org/1999/xlink" width="263" height="88" viewBox="0 0 263 88">
  <defs>
    <ellipse id="b" cx="33.644" cy="33.791" rx="33.644" ry="33.791"/>
    <filter id="a" width="163.9%" height="163.6%" x="-32%" y="-24.4%" filterUnits="objectBoundingBox">
      <feOffset dy="5" in="SourceAlpha" result="shadowOffsetOuter1"/>
      <feGaussianBlur in="shadowOffsetOuter1" result="shadowBlurOuter1" stdDeviation="5"/>
      <feColorMatrix in="shadowBlurOuter1" result="shadowMatrixOuter1" values="0 0 0 0 0 0 0 0 0 0 0 0 0 0 0 0 0 0 0.0577162591 0"/>
      <feOffset in="SourceAlpha" result="shadowOffsetOuter2"/>
      <feGaussianBlur in="shadowOffsetOuter2" result="shadowBlurOuter2" stdDeviation="2"/>
      <feColorMatrix in="shadowBlurOuter2" result="shadowMatrixOuter2" values="0 0 0 0 0.168627451 0 0 0 0 0.243137255 0 0 0 0 0.317647059 0 0 0 0.05 0"/>
      <feMerge>
        <feMergeNode in="shadowMatrixOuter1"/>
        <feMergeNode in="shadowMatrixOuter2"/>
      </feMerge>
    </filter>
    <ellipse id="d" cx="33.644" cy="33.791" rx="33.644" ry="33.791"/>
    <filter id="c" width="163.9%" height="163.6%" x="-32%" y="-24.4%" filterUnits="objectBoundingBox">
      <feOffset dy="5" in="SourceAlpha" result="shadowOffsetOuter1"/>
      <feGaussianBlur in="shadowOffsetOuter1" result="shadowBlurOuter1" stdDeviation="5"/>
      <feColorMatrix in="shadowBlurOuter1" result="shadowMatrixOuter1" values="0 0 0 0 0 0 0 0 0 0 0 0 0 0 0 0 0 0 0.0577162591 0"/>
      <feOffset in="SourceAlpha" result="shadowOffsetOuter2"/>
      <feGaussianBlur in="shadowOffsetOuter2" result="shadowBlurOuter2" stdDeviation="2"/>
      <feColorMatrix in="shadowBlurOuter2" result="shadowMatrixOuter2" values="0 0 0 0 0.168627451 0 0 0 0 0.243137255 0 0 0 0 0.317647059 0 0 0 0.05 0"/>
      <feMerge>
        <feMergeNode in="shadowMatrixOuter1"/>
        <feMergeNode in="shadowMatrixOuter2"/>
      </feMerge>
    </filter>
    <ellipse id="f" cx="33.644" cy="33.791" rx="33.644" ry="33.791"/>
    <filter id="e" width="163.9%" height="163.6%" x="-32%" y="-24.4%" filterUnits="objectBoundingBox">
      <feOffset dy="5" in="SourceAlpha" result="shadowOffsetOuter1"/>
      <feGaussianBlur in="shadowOffsetOuter1" result="shadowBlurOuter1" stdDeviation="5"/>
      <feColorMatrix in="shadowBlurOuter1" result="shadowMatrixOuter1" values="0 0 0 0 0 0 0 0 0 0 0 0 0 0 0 0 0 0 0.0577162591 0"/>
      <feOffset in="SourceAlpha" result="shadowOffsetOuter2"/>
      <feGaussianBlur in="shadowOffsetOuter2" result="shadowBlurOuter2" stdDeviation="2"/>
      <feColorMatrix in="shadowBlurOuter2" result="shadowMatrixOuter2" values="0 0 0 0 0.168627451 0 0 0 0 0.243137255 0 0 0 0 0.317647059 0 0 0 0.05 0"/>
      <feMerge>
        <feMergeNode in="shadowMatrixOuter1"/>
        <feMergeNode in="shadowMatrixOuter2"/>
      </feMerge>
    </filter>
  </defs>
  <g fill="none" fill-rule="evenodd">
    <g transform="translate(98 5)">
      <use fill="black" filter="url(#a)" xlink:href="#b"/>
      <use fill="#FFFFFF" xlink:href="#b"/>
      <path fill="#11CD62" d="M20.2,42 L40,42 C41.1045695,42 42,41.1045695 42,40 L42,40 L42,26 C42,24.8954305 41.1045695,24 40,24 L18,24 L18,24 C16.8954305,24 16,24.8954305 16,26 L16,26 L16,40 L16,45 L20.2,42 Z" opacity=".5"/>
      <rect width="17" height="2" x="20" y="28" fill="#FFFFFF" rx="1"/>
      <rect width="17" height="2" x="20" y="32" fill="#FFFFFF" rx="1"/>
      <rect width="6" height="2" x="20" y="36" fill="#FFFFFF" rx="1"/>
      <rect width="20" height="26" x="30" y="20" fill="#31CE75" rx="2"/>
      <polyline stroke="#FFFFFF" stroke-width="2" points="35.424 31.687 38.659 34.922 43.981 29.6"/>
    </g>
    <g transform="translate(10 5)">
      <use fill="black" filter="url(#c)" xlink:href="#d"/>
      <use fill="#FFFFFF" xlink:href="#d"/>
      <rect width="26" height="17" x="16" y="22" fill="#008BFF" opacity=".5" rx="2"/>
      <rect width="26" height="17" x="25" y="29" fill="#008BFF" rx="2"/>
      <circle cx="38" cy="38" r="4" fill="#FFFFFF"/>
    </g>
    <g transform="translate(186 5)">
      <use fill="black" filter="url(#e)" xlink:href="#f"/>
      <use fill="#FFFFFF" xlink:href="#f"/>
      <g fill="#FF7C3F" transform="translate(17 17)">
        <path fill-rule="nonzero" d="M31.1478344,13.2895096 L27.3758415,12.4396459 C27.2789881,12.1824721 27.1784986,11.9276122 27.0647867,11.6790328 L29.1301107,8.41213191 C29.4474461,7.91133712 29.3634844,7.15766575 28.942354,6.73884925 L26.2635151,4.0570353 C25.8420541,3.63854935 25.0900355,3.55524883 24.5879185,3.87192303 L21.3233315,5.93625536 C21.074091,5.82221298 20.8198922,5.72007067 20.5637101,5.62255618 L19.7121937,1.84990208 C19.5819539,1.27208737 18.9899253,0.798398302 18.3959132,0.798398302 L14.6060701,0.798398302 C14.0110664,0.798398302 13.4193683,1.27208737 13.2897897,1.84990208 L12.4395955,5.62222562 C12.1820911,5.71974012 11.928884,5.82188242 11.6799741,5.93526368 L8.41472595,3.86894801 C7.91161725,3.55227382 7.15893756,3.63788824 6.73879883,4.0570353 L4.05797655,6.73818814 C3.63916004,7.15667408 3.55585952,7.90968433 3.87319484,8.4114708 L5.9371966,11.6780412 C5.82315422,11.9262899 5.72167304,12.1804888 5.62614188,12.437332 L1.85117389,13.2865345 C1.2723675,13.4174354 0.798347877,14.0104557 0.799008993,14.6034761 L0.798347877,18.3933192 C0.799008993,18.9876618 1.27203694,19.5786988 1.85117389,19.7086079 L5.62548077,20.561116 C5.72134248,20.815976 5.8241459,21.0695137 5.93653549,21.3161096 L3.86889759,24.5853245 C3.55156228,25.0877721 3.63585447,25.8414434 4.05665432,26.2612516 L6.73615437,28.9404211 C7.15695421,29.3612209 7.90996447,29.4438603 8.41142037,29.1261945 L11.6796435,27.061201 C11.9272312,27.1752434 12.1810994,27.2757329 12.4362899,27.3712641 L13.285823,31.1478849 C13.4177155,31.7260301 14.0104053,32.2010414 14.6044173,32.2010414 L18.3932688,32.2010414 C18.9882725,32.2010414 19.5806317,31.7260301 19.7075658,31.1478849 L20.5607351,27.3739085 C20.8159255,27.2787079 21.0714466,27.1765656 21.3190342,27.0628538 L24.5842824,29.1304917 C25.0870605,29.4474965 25.8410624,29.3615515 26.2625234,28.9420739 L28.9407012,26.2615822 C29.3618316,25.8421045 29.444471,25.0904165 29.1264746,24.5876384 L27.0637951,21.321068 C27.1778374,21.0731498 27.2793186,20.8186204 27.3745192,20.5624383 L31.148165,19.7129052 C31.7263103,19.5820044 32.2016521,18.9893146 32.2016521,18.394972 L32.2016521,14.6061206 C32.2013216,14.0107863 31.7259797,13.4214021 31.1478344,13.2895096 Z M16.5009734,25.913534 C11.301587,25.913534 7.08647982,21.6984269 7.08647982,16.4990405 C7.08647982,11.2980378 11.301587,7.08293067 16.5009734,7.08293067 C21.7035922,7.08293067 25.9138507,11.2980378 25.9138507,16.4990405 C25.9138507,21.6984269 21.7035922,25.913534 16.5009734,25.913534 Z"/>
        <circle cx="16.5" cy="16.5" r="5.855" opacity=".5"/>
      </g>
    </g>
  </g>
</svg>
