<?xml version="1.0" encoding="UTF-8"?>
<svg width="109px" height="25px" viewBox="0 0 109 25" version="1.1" xmlns="http://www.w3.org/2000/svg" xmlns:xlink="http://www.w3.org/1999/xlink">
    <!-- Generator: Sketch 45.2 (43514) - http://www.bohemiancoding.com/sketch -->
    <title>sprite_social</title>
    <desc>Created with Sketch.</desc>
    <defs></defs>
    <g id="Symbols" stroke="none" stroke-width="1" fill="none" fill-rule="evenodd" fill-opacity="0.6">
        <g id="Footer" transform="translate(-1195.000000, -356.000000)" fill="#7F8A96">
            <g id="Group-28">
                <g id="Group" transform="translate(1195.000000, 356.000000)">
                    <g id="sprite_social">
                        <path d="M101.174312,17.2260101 C102.101661,18.1671293 102.264606,19.3182331 102.263326,20.5240644 C102.261853,21.8921892 102.263006,23.260314 102.263006,24.6284387 L102.263006,25 L94.091145,25 L94.091145,21.8128993 C93.7675589,21.8538799 93.4960898,21.8966195 93.2230841,21.9213772 C92.2375359,22.0106353 91.2573659,21.9614457 90.3238707,21.6152936 C89.5221404,21.3179403 88.9466131,20.7539203 88.5976728,19.9343094 C88.3582165,19.3717879 88.0720855,18.818518 87.727499,18.3176953 C87.4844573,17.9644417 87.1097147,17.7045508 86.7910586,17.4059596 C86.6197897,17.2454253 86.4175965,17.1117988 86.2739227,16.9296992 C86.0143624,16.6007473 86.1111053,16.4026204 86.5304098,16.3615095 C87.0104108,16.3144047 87.4569262,16.4272478 87.8852584,16.6509142 C88.5910141,17.0192831 89.110711,17.5715106 89.5120884,18.2602965 C89.8969471,18.9208065 90.4183727,19.450752 91.140647,19.708949 C92.1285641,20.0621375 93.0926636,19.8614045 94.031409,19.4798749 C94.0953707,19.4538793 94.1439022,19.3325013 94.1593964,19.247869 C94.2967957,18.4982312 94.5726185,17.8190227 95.1356609,17.2560451 C94.454299,17.1256761 93.7942577,17.0411741 93.1568815,16.869564 C91.2752931,16.363008 89.6459021,15.4697754 88.6969127,13.6306024 C88.0996166,12.4729183 87.8129734,11.2242821 87.7363346,9.9252184 C87.6735253,8.86096211 87.6962544,7.8048498 88.0492924,6.77968465 C88.3060356,6.03402114 88.6714304,5.35448682 89.1839565,4.76329848 C89.3363377,4.58751865 89.3675182,4.44763752 89.2895989,4.21869374 C88.8279734,2.86203571 89.0167212,1.5297445 89.4928166,0.220256451 C89.5861021,-0.036376885 89.8500162,-0.00972975763 90.0403647,0.0301432055 C90.5273445,0.13210593 91.031163,0.219995844 91.4808157,0.422553102 C92.2852991,0.784927973 93.0514951,1.23454124 93.842341,1.62994812 C93.9877434,1.7027228 94.188144,1.74898065 94.3388606,1.71008496 C95.9224091,1.3016477 97.5331046,1.14430586 99.1549405,1.26568385 C100.104634,1.33676457 101.042163,1.56890079 101.988079,1.7078698 C102.157491,1.73275782 102.372362,1.7078698 102.513282,1.6190026 C103.512084,0.989374637 104.538801,0.423921292 105.683133,0.119987676 C106.647168,-0.135994141 106.805376,-0.0328586823 107.061799,0.928001547 C107.363872,2.05975521 107.423544,3.1856452 107.027225,4.31238217 C106.990986,4.41525702 107.029274,4.59533688 107.100919,4.6800995 C108.251973,6.04236059 108.695287,7.62946088 108.622874,9.40374259 C108.579337,10.4701489 108.433422,11.5085399 108.110092,12.5279065 C107.544425,14.3115701 106.389337,15.5220924 104.739393,16.3061304 C103.622977,16.8365972 102.440805,17.0622833 101.174312,17.2260101" id="Fill-1"></path>
                        <path d="M63.8171605,8.10927461 C63.8249019,8.31956214 63.8287726,8.52395376 63.8287726,8.7381719 C63.8287726,15.2295711 58.9633029,22.7193448 50.0684347,22.7193448 C47.3357207,22.7193448 44.7926709,21.9057089 42.6521739,20.5083777 C43.0315025,20.5535797 43.4147018,20.5771634 43.8056425,20.5771634 C46.0738725,20.5771634 48.1582444,19.7930071 49.8149039,18.4762534 C47.6976311,18.4389126 45.9113032,17.0140672 45.2958619,15.0644856 C45.5900351,15.1175488 45.893885,15.1489936 46.2054763,15.1489936 C46.6467361,15.1489936 47.0744484,15.0919998 47.4808719,14.9799775 C45.2668316,14.5279576 43.59856,12.5430005 43.59856,10.1630173 C43.59856,10.1433643 43.59856,10.1276418 43.6024307,10.1020929 C44.2527083,10.4735354 44.9997533,10.6916841 45.7893761,10.7191984 C44.4926917,9.83677685 43.6392024,8.33528457 43.6392024,6.62743537 C43.6392024,5.72929143 43.8772504,4.88421069 44.2933506,4.15901351 C46.6777017,7.12662259 50.2426162,9.0801348 54.262338,9.28845703 C54.1791179,8.93077169 54.1404109,8.55146801 54.1404109,8.17019903 C54.1404109,5.45611417 56.3021968,3.26086957 58.974915,3.26086957 C60.3664316,3.26086957 61.624409,3.86028729 62.5049932,4.80756384 C63.6081427,4.58941509 64.6416195,4.18259716 65.5783289,3.62248551 C65.2164185,4.76629245 64.4480845,5.72929143 63.449444,6.33657037 C64.428731,6.22061743 65.363505,5.959232 66.2286065,5.55634467 C65.5802642,6.55078851 64.7596759,7.41355698 63.8171605,8.10927461" id="Path"></path>
                        <path d="M21.9125066,15.8328638 L19.5623263,16.6162572 L20.3747343,19.0534813 C20.6938946,20.0399768 20.1716323,21.1135159 19.1851368,21.4326762 C18.9820348,21.4907054 18.7499182,21.5487345 18.5468162,21.51972 C17.7924374,21.4907054 17.067073,20.9974577 16.8059419,20.2430788 L15.9935339,17.8058547 L11.1481003,19.4306708 L11.9605083,21.8678948 C12.2796686,22.8543903 11.7574063,23.9279295 10.7709109,24.2470898 C10.5678089,24.3051189 10.3356923,24.363148 10.1325903,24.3341335 C9.37821139,24.3051189 8.65284708,23.8118712 8.39171593,23.0574923 L7.57930791,20.6202682 L5.22912755,21.4036617 C5.02602555,21.4616908 4.79390897,21.51972 4.59080696,21.4907054 C3.83642808,21.4616908 3.11106377,20.9684431 2.84993262,20.2140642 C2.53077233,19.2275687 3.05303463,18.1540296 4.03953009,17.8348693 L6.38971044,17.0514758 L4.82292354,12.3801297 L2.47274318,13.1635231 C2.26964118,13.2215523 2.0375246,13.2795814 1.83442259,13.2505669 C1.08004371,13.2215523 0.354679406,12.7283046 0.0935482551,11.9739257 C-0.22561204,10.9874302 0.296650261,9.91389104 1.28314572,9.59473074 L3.63332608,8.81133729 L2.82091805,6.37411322 C2.50175776,5.38761776 3.02402006,4.31407858 4.01051551,3.99491829 C4.99701097,3.67575799 6.07055015,4.1980203 6.38971044,5.18451575 L7.20211847,7.62173983 L12.047552,5.99692378 L11.235144,3.55969971 C10.9159837,2.57320425 11.438246,1.49966507 12.4247415,1.18050478 C13.4112369,0.861344482 14.4847761,1.38360678 14.8039364,2.37010224 L15.6163444,4.80732631 L17.9665248,4.02393286 C18.9530202,3.70477257 20.0265594,4.22703487 20.3457197,5.21353033 C20.66488,6.20002578 20.1426177,7.27356496 19.1561223,7.59272525 L16.8059419,8.37611871 L18.3727288,13.0474648 L20.7229092,12.2640714 C21.7094046,11.9449111 22.7829438,12.4671734 23.1021041,13.4536689 C23.4212644,14.4401643 22.8990021,15.5137035 21.9125066,15.8328638 Z M8.3785085,11.2285007 L9.94506329,15.9054757 L14.787108,14.2836307 L13.2205532,9.60665573 L8.3785085,11.2285007 Z" id="Combined-Shape" fill-rule="nonzero"></path>
                    </g>
                </g>
            </g>
        </g>
    </g>
</svg>